<svg width="46" height="46" viewBox="0 0 46 46" fill="none" xmlns="http://www.w3.org/2000/svg">
<path d="M44 23C44 34.598 34.598 44 23 44C11.402 44 2 34.598 2 23C2 11.402 11.402 2 23 2C34.598 2 44 11.402 44 23Z" stroke="#2D9CDB" stroke-width="4"/>
<path d="M13.4621 19.64C14.5181 19.64 15.3401 19.904 15.9281 20.432C16.5161 20.96 16.8101 21.824 16.8101 23.024V29H14.1281V23.582C14.1281 22.43 13.5521 21.854 12.4001 21.854C12.1241 21.854 11.8421 21.896 11.5541 21.98C11.2661 22.064 11.0441 22.166 10.8881 22.286L10.8521 29H8.18811V16.292H10.8881V20.306C11.7161 19.862 12.5741 19.64 13.4621 19.64Z" fill="white"/>
<path d="M19.066 26.462H21.676V29H19.066V26.462Z" fill="white"/>
<path d="M24.4112 29V15.9922H26.9689L30.5724 26.0557L34.2814 15.9922H36.5665V29H34.8439V18.418L31.2579 28.1299H29.4737L25.9933 18.3916V29H24.4112Z" fill="white"/>
</svg>
